<svg width="35" height="38" viewBox="0 0 35 38" fill="none" xmlns="http://www.w3.org/2000/svg">
<path d="M33.2794 7.80284L18.105 0.203426C17.841 0.0703247 17.5495 0.000664455 17.2537 4.73013e-06C16.958 -0.000654995 16.6662 0.0677044 16.4016 0.199627L1.12435 7.79904C0.559086 8.08401 0.168924 8.62927 0.0889878 9.25622C0.0642458 9.44051 -2.09021 27.7627 16.3445 37.7692C16.6279 37.9235 16.946 38.0029 17.2688 37.9999C17.5916 37.9969 17.9083 37.9116 18.1887 37.7521C35.9021 27.7608 34.3928 10.0656 34.3205 9.31702C34.2893 8.99736 34.1775 8.69082 33.9954 8.42602C33.8134 8.16122 33.567 7.94681 33.2794 7.80284Z" fill="white"/>
</svg>
