<svg width="530" height="530" viewBox="0 0 530 530" fill="none" xmlns="http://www.w3.org/2000/svg">
<rect width="530" height="530" rx="4" fill="url(#paint0_linear_212_600)"/>
<rect x="78" y="78" width="374" height="374" rx="12" fill="#11172E"/>
<path opacity="0.2" d="M197 451.877C202.783 425.146 234.094 359.821 310.426 352.489C386.758 345.158 445.254 312.802 452 305.165" stroke="#BAE7B6" stroke-linecap="round"/>
<path opacity="0.2" d="M217.959 451.877C223.733 424.828 253.9 372.378 330.116 364.959C406.333 357.54 445.264 333.852 452 326.124" stroke="#BAE7B6" stroke-linecap="round"/>
<path d="M226.876 316.252C225.22 316.252 223.732 315.964 222.412 315.388C221.116 314.788 220.096 313.972 219.352 312.94C218.608 311.884 218.224 310.672 218.2 309.304H221.692C221.812 310.48 222.292 311.476 223.132 312.292C223.996 313.084 225.244 313.48 226.876 313.48C228.436 313.48 229.66 313.096 230.548 312.328C231.46 311.536 231.916 310.528 231.916 309.304C231.916 308.344 231.652 307.564 231.124 306.964C230.596 306.364 229.936 305.908 229.144 305.596C228.352 305.284 227.284 304.948 225.94 304.588C224.284 304.156 222.952 303.724 221.944 303.292C220.96 302.86 220.108 302.188 219.388 301.276C218.692 300.34 218.344 299.092 218.344 297.532C218.344 296.164 218.692 294.952 219.388 293.896C220.084 292.84 221.056 292.024 222.304 291.448C223.576 290.872 225.028 290.584 226.66 290.584C229.012 290.584 230.932 291.172 232.42 292.348C233.932 293.524 234.784 295.084 234.976 297.028H231.376C231.256 296.068 230.752 295.228 229.864 294.508C228.976 293.764 227.8 293.392 226.336 293.392C224.968 293.392 223.852 293.752 222.988 294.472C222.124 295.168 221.692 296.152 221.692 297.424C221.692 298.336 221.944 299.08 222.448 299.656C222.976 300.232 223.612 300.676 224.356 300.988C225.124 301.276 226.192 301.612 227.56 301.996C229.216 302.452 230.548 302.908 231.556 303.364C232.564 303.796 233.428 304.48 234.148 305.416C234.868 306.328 235.228 307.576 235.228 309.16C235.228 310.384 234.904 311.536 234.256 312.616C233.608 313.696 232.648 314.572 231.376 315.244C230.104 315.916 228.604 316.252 226.876 316.252ZM244.045 298.972V310.6C244.045 311.56 244.249 312.244 244.657 312.652C245.065 313.036 245.773 313.228 246.781 313.228H249.193V316H246.241C244.417 316 243.049 315.58 242.137 314.74C241.225 313.9 240.769 312.52 240.769 310.6V298.972H238.213V296.272H240.769V291.304H244.045V296.272H249.193V298.972H244.045ZM271.163 305.38C271.163 306.004 271.127 306.664 271.055 307.36H255.287C255.407 309.304 256.067 310.828 257.267 311.932C258.491 313.012 259.967 313.552 261.695 313.552C263.111 313.552 264.287 313.228 265.223 312.58C266.183 311.908 266.855 311.02 267.239 309.916H270.767C270.239 311.812 269.183 313.36 267.599 314.56C266.015 315.736 264.047 316.324 261.695 316.324C259.823 316.324 258.143 315.904 256.655 315.064C255.191 314.224 254.039 313.036 253.199 311.5C252.359 309.94 251.939 308.14 251.939 306.1C251.939 304.06 252.347 302.272 253.163 300.736C253.979 299.2 255.119 298.024 256.583 297.208C258.071 296.368 259.775 295.948 261.695 295.948C263.567 295.948 265.223 296.356 266.663 297.172C268.103 297.988 269.207 299.116 269.975 300.556C270.767 301.972 271.163 303.58 271.163 305.38ZM267.779 304.696C267.779 303.448 267.503 302.38 266.951 301.492C266.399 300.58 265.643 299.896 264.683 299.44C263.747 298.96 262.703 298.72 261.551 298.72C259.895 298.72 258.479 299.248 257.303 300.304C256.151 301.36 255.491 302.824 255.323 304.696H267.779ZM278.763 299.908C279.411 298.78 280.371 297.844 281.643 297.1C282.939 296.332 284.439 295.948 286.143 295.948C287.895 295.948 289.479 296.368 290.895 297.208C292.335 298.048 293.463 299.236 294.279 300.772C295.095 302.284 295.503 304.048 295.503 306.064C295.503 308.056 295.095 309.832 294.279 311.392C293.463 312.952 292.335 314.164 290.895 315.028C289.479 315.892 287.895 316.324 286.143 316.324C284.463 316.324 282.975 315.952 281.679 315.208C280.407 314.44 279.435 313.492 278.763 312.364V325.36H275.487V296.272H278.763V299.908ZM292.155 306.064C292.155 304.576 291.855 303.28 291.255 302.176C290.655 301.072 289.839 300.232 288.807 299.656C287.799 299.08 286.683 298.792 285.459 298.792C284.259 298.792 283.143 299.092 282.111 299.692C281.103 300.268 280.287 301.12 279.663 302.248C279.063 303.352 278.763 304.636 278.763 306.1C278.763 307.588 279.063 308.896 279.663 310.024C280.287 311.128 281.103 311.98 282.111 312.58C283.143 313.156 284.259 313.444 285.459 313.444C286.683 313.444 287.799 313.156 288.807 312.58C289.839 311.98 290.655 311.128 291.255 310.024C291.855 308.896 292.155 307.576 292.155 306.064ZM306.799 316.324C305.287 316.324 303.931 316.072 302.731 315.568C301.531 315.04 300.583 314.32 299.887 313.408C299.191 312.472 298.807 311.404 298.735 310.204H302.119C302.215 311.188 302.671 311.992 303.487 312.616C304.327 313.24 305.419 313.552 306.763 313.552C308.011 313.552 308.995 313.276 309.715 312.724C310.435 312.172 310.795 311.476 310.795 310.636C310.795 309.772 310.411 309.136 309.643 308.728C308.875 308.296 307.687 307.876 306.079 307.468C304.615 307.084 303.415 306.7 302.479 306.316C301.567 305.908 300.775 305.32 300.103 304.552C299.455 303.76 299.131 302.728 299.131 301.456C299.131 300.448 299.431 299.524 300.031 298.684C300.631 297.844 301.483 297.184 302.587 296.704C303.691 296.2 304.951 295.948 306.367 295.948C308.551 295.948 310.315 296.5 311.659 297.604C313.003 298.708 313.723 300.22 313.819 302.14H310.543C310.471 301.108 310.051 300.28 309.283 299.656C308.539 299.032 307.531 298.72 306.259 298.72C305.083 298.72 304.147 298.972 303.451 299.476C302.755 299.98 302.407 300.64 302.407 301.456C302.407 302.104 302.611 302.644 303.019 303.076C303.451 303.484 303.979 303.82 304.603 304.084C305.251 304.324 306.139 304.6 307.267 304.912C308.683 305.296 309.835 305.68 310.723 306.064C311.611 306.424 312.367 306.976 312.991 307.72C313.639 308.464 313.975 309.436 313.999 310.636C313.999 311.716 313.699 312.688 313.099 313.552C312.499 314.416 311.647 315.1 310.543 315.604C309.463 316.084 308.215 316.324 306.799 316.324Z" fill="#C79178"/>
<path d="M165.055 345.575C164.851 344.63 164.493 343.928 163.982 343.468C163.471 342.982 162.743 342.74 161.798 342.74C160.342 342.74 159.295 343.378 158.656 344.656C158.017 345.908 157.685 347.9 157.66 350.634C158.222 349.74 159.026 349.037 160.074 348.526C161.147 348.015 162.322 347.76 163.599 347.76C166.103 347.76 168.108 348.552 169.615 350.136C171.148 351.719 171.915 353.929 171.915 356.765C171.915 358.63 171.531 360.265 170.765 361.67C170.024 363.075 168.926 364.173 167.469 364.965C166.039 365.757 164.34 366.153 162.373 366.153C158.439 366.153 155.705 364.927 154.172 362.475C152.64 359.997 151.873 356.446 151.873 351.822C151.873 346.968 152.678 343.366 154.287 341.015C155.922 338.64 158.528 337.452 162.105 337.452C164.021 337.452 165.63 337.835 166.933 338.601C168.261 339.342 169.258 340.326 169.922 341.552C170.612 342.778 171.02 344.119 171.148 345.575H165.055ZM162.028 352.933C160.93 352.933 160.01 353.265 159.269 353.929C158.554 354.568 158.196 355.488 158.196 356.688C158.196 357.914 158.528 358.872 159.192 359.562C159.882 360.252 160.853 360.597 162.105 360.597C163.229 360.597 164.11 360.265 164.749 359.601C165.413 358.911 165.745 357.978 165.745 356.803C165.745 355.603 165.426 354.657 164.787 353.968C164.148 353.278 163.229 352.933 162.028 352.933ZM180.219 350.979C177.818 349.701 176.617 347.696 176.617 344.962C176.617 343.583 176.975 342.331 177.69 341.207C178.405 340.057 179.491 339.15 180.947 338.486C182.403 337.796 184.192 337.452 186.312 337.452C188.432 337.452 190.208 337.796 191.639 338.486C193.095 339.15 194.181 340.057 194.896 341.207C195.611 342.331 195.969 343.583 195.969 344.962C195.969 346.342 195.637 347.543 194.972 348.564C194.334 349.586 193.465 350.391 192.367 350.979C193.746 351.643 194.806 352.562 195.547 353.738C196.288 354.887 196.659 356.241 196.659 357.8C196.659 359.613 196.199 361.184 195.279 362.513C194.359 363.816 193.108 364.812 191.524 365.502C189.965 366.192 188.228 366.536 186.312 366.536C184.396 366.536 182.646 366.192 181.062 365.502C179.504 364.812 178.265 363.816 177.345 362.513C176.426 361.184 175.966 359.613 175.966 357.8C175.966 356.216 176.336 354.849 177.077 353.699C177.818 352.524 178.865 351.617 180.219 350.979ZM189.608 345.959C189.608 344.911 189.301 344.107 188.688 343.544C188.1 342.957 187.308 342.663 186.312 342.663C185.316 342.663 184.511 342.957 183.898 343.544C183.31 344.132 183.017 344.95 183.017 345.997C183.017 346.993 183.323 347.785 183.936 348.373C184.549 348.935 185.341 349.216 186.312 349.216C187.283 349.216 188.075 348.922 188.688 348.334C189.301 347.747 189.608 346.955 189.608 345.959ZM186.312 353.814C185.111 353.814 184.141 354.146 183.4 354.811C182.659 355.449 182.289 356.343 182.289 357.493C182.289 358.566 182.646 359.447 183.361 360.137C184.102 360.827 185.086 361.172 186.312 361.172C187.538 361.172 188.496 360.827 189.186 360.137C189.901 359.447 190.259 358.566 190.259 357.493C190.259 356.369 189.889 355.475 189.148 354.811C188.432 354.146 187.487 353.814 186.312 353.814ZM200.469 351.63C200.469 347.236 201.312 343.774 202.998 341.245C204.71 338.716 207.456 337.452 211.237 337.452C215.018 337.452 217.751 338.716 219.437 341.245C221.149 343.774 222.005 347.236 222.005 351.63C222.005 356.075 221.149 359.562 219.437 362.091C217.751 364.62 215.018 365.885 211.237 365.885C207.456 365.885 204.71 364.62 202.998 362.091C201.312 359.562 200.469 356.075 200.469 351.63ZM215.567 351.63C215.567 349.05 215.286 347.07 214.724 345.69C214.162 344.285 213 343.583 211.237 343.583C209.474 343.583 208.312 344.285 207.75 345.69C207.188 347.07 206.907 349.05 206.907 351.63C206.907 353.367 207.009 354.811 207.213 355.96C207.418 357.084 207.826 358.004 208.44 358.719C209.078 359.409 210.011 359.754 211.237 359.754C212.463 359.754 213.383 359.409 213.996 358.719C214.635 358.004 215.056 357.084 215.26 355.96C215.465 354.811 215.567 353.367 215.567 351.63ZM225.467 351.63C225.467 347.236 226.31 343.774 227.996 341.245C229.708 338.716 232.454 337.452 236.235 337.452C240.016 337.452 242.749 338.716 244.435 341.245C246.147 343.774 247.003 347.236 247.003 351.63C247.003 356.075 246.147 359.562 244.435 362.091C242.749 364.62 240.016 365.885 236.235 365.885C232.454 365.885 229.708 364.62 227.996 362.091C226.31 359.562 225.467 356.075 225.467 351.63ZM240.565 351.63C240.565 349.05 240.284 347.07 239.722 345.69C239.16 344.285 237.997 343.583 236.235 343.583C234.472 343.583 233.31 344.285 232.748 345.69C232.186 347.07 231.905 349.05 231.905 351.63C231.905 353.367 232.007 354.811 232.211 355.96C232.415 357.084 232.824 358.004 233.437 358.719C234.076 359.409 235.008 359.754 236.235 359.754C237.461 359.754 238.381 359.409 238.994 358.719C239.632 358.004 240.054 357.084 240.258 355.96C240.463 354.811 240.565 353.367 240.565 351.63ZM265.716 329.596L255.446 373.166H249.123L259.393 329.596H265.716ZM267.139 344.119V338.026H277.753V366H270.932V344.119H267.139ZM282.236 351.63C282.236 347.236 283.079 343.774 284.765 341.245C286.477 338.716 289.223 337.452 293.004 337.452C296.785 337.452 299.518 338.716 301.204 341.245C302.916 343.774 303.772 347.236 303.772 351.63C303.772 356.075 302.916 359.562 301.204 362.091C299.518 364.62 296.785 365.885 293.004 365.885C289.223 365.885 286.477 364.62 284.765 362.091C283.079 359.562 282.236 356.075 282.236 351.63ZM297.334 351.63C297.334 349.05 297.053 347.07 296.491 345.69C295.929 344.285 294.766 343.583 293.004 343.583C291.241 343.583 290.079 344.285 289.517 345.69C288.955 347.07 288.674 349.05 288.674 351.63C288.674 353.367 288.776 354.811 288.98 355.96C289.184 357.084 289.593 358.004 290.206 358.719C290.845 359.409 291.777 359.754 293.004 359.754C294.23 359.754 295.15 359.409 295.763 358.719C296.401 358.004 296.823 357.084 297.027 355.96C297.232 354.811 297.334 353.367 297.334 351.63ZM307.234 351.63C307.234 347.236 308.077 343.774 309.763 341.245C311.474 338.716 314.221 337.452 318.002 337.452C321.782 337.452 324.516 338.716 326.202 341.245C327.914 343.774 328.769 347.236 328.769 351.63C328.769 356.075 327.914 359.562 326.202 362.091C324.516 364.62 321.782 365.885 318.002 365.885C314.221 365.885 311.474 364.62 309.763 362.091C308.077 359.562 307.234 356.075 307.234 351.63ZM322.332 351.63C322.332 349.05 322.051 347.07 321.489 345.69C320.927 344.285 319.764 343.583 318.002 343.583C316.239 343.583 315.076 344.285 314.514 345.69C313.952 347.07 313.671 349.05 313.671 351.63C313.671 353.367 313.774 354.811 313.978 355.96C314.182 357.084 314.591 358.004 315.204 358.719C315.843 359.409 316.775 359.754 318.002 359.754C319.228 359.754 320.147 359.409 320.761 358.719C321.399 358.004 321.821 357.084 322.025 355.96C322.229 354.811 322.332 353.367 322.332 351.63ZM332.231 351.63C332.231 347.236 333.074 343.774 334.761 341.245C336.472 338.716 339.218 337.452 342.999 337.452C346.78 337.452 349.514 338.716 351.2 341.245C352.911 343.774 353.767 347.236 353.767 351.63C353.767 356.075 352.911 359.562 351.2 362.091C349.514 364.62 346.78 365.885 342.999 365.885C339.218 365.885 336.472 364.62 334.761 362.091C333.074 359.562 332.231 356.075 332.231 351.63ZM347.329 351.63C347.329 349.05 347.048 347.07 346.486 345.69C345.924 344.285 344.762 343.583 342.999 343.583C341.237 343.583 340.074 344.285 339.512 345.69C338.95 347.07 338.669 349.05 338.669 351.63C338.669 353.367 338.771 354.811 338.976 355.96C339.18 357.084 339.589 358.004 340.202 358.719C340.841 359.409 341.773 359.754 342.999 359.754C344.226 359.754 345.145 359.409 345.758 358.719C346.397 358.004 346.819 357.084 347.023 355.96C347.227 354.811 347.329 353.367 347.329 351.63ZM357.229 351.63C357.229 347.236 358.072 343.774 359.758 341.245C361.47 338.716 364.216 337.452 367.997 337.452C371.778 337.452 374.512 338.716 376.198 341.245C377.909 343.774 378.765 347.236 378.765 351.63C378.765 356.075 377.909 359.562 376.198 362.091C374.512 364.62 371.778 365.885 367.997 365.885C364.216 365.885 361.47 364.62 359.758 362.091C358.072 359.562 357.229 356.075 357.229 351.63ZM372.327 351.63C372.327 349.05 372.046 347.07 371.484 345.69C370.922 344.285 369.76 343.583 367.997 343.583C366.234 343.583 365.072 344.285 364.51 345.69C363.948 347.07 363.667 349.05 363.667 351.63C363.667 353.367 363.769 354.811 363.974 355.96C364.178 357.084 364.587 358.004 365.2 358.719C365.838 359.409 366.771 359.754 367.997 359.754C369.223 359.754 370.143 359.409 370.756 358.719C371.395 358.004 371.816 357.084 372.021 355.96C372.225 354.811 372.327 353.367 372.327 351.63Z" fill="#C79178"/>
<path d="M323 206.5C323 238.256 297.256 264 265.5 264C233.744 264 208 238.256 208 206.5C208 174.744 233.744 149 265.5 149C297.256 149 323 174.744 323 206.5ZM219.5 206.5C219.5 231.905 240.095 252.5 265.5 252.5C290.905 252.5 311.5 231.905 311.5 206.5C311.5 181.095 290.905 160.5 265.5 160.5C240.095 160.5 219.5 181.095 219.5 206.5Z" fill="#11172E"/>
<path d="M289.308 160.552C290.769 157.732 289.675 154.233 286.724 153.06C278.911 149.957 270.489 148.596 262.051 149.104C251.694 149.726 241.698 153.139 233.123 158.982C224.549 164.824 217.715 172.877 213.346 182.289C208.977 191.7 207.236 202.118 208.307 212.438C209.379 222.758 213.223 232.596 219.432 240.909C225.641 249.222 233.984 255.7 243.576 259.656C253.168 263.612 263.652 264.899 273.916 263.381C282.278 262.144 290.241 259.082 297.25 254.44C299.897 252.686 300.248 249.037 298.239 246.577C296.23 244.118 292.624 243.788 289.933 245.475C284.565 248.84 278.541 251.071 272.232 252.005C264.021 253.22 255.634 252.19 247.961 249.025C240.287 245.86 233.613 240.678 228.646 234.027C223.678 227.377 220.603 219.507 219.746 211.25C218.889 202.994 220.282 194.66 223.777 187.131C227.272 179.602 232.739 173.159 239.599 168.485C246.458 163.811 254.455 161.081 262.741 160.583C269.106 160.2 275.46 161.147 281.405 163.337C284.385 164.435 287.847 163.371 289.308 160.552Z" fill="#C79178"/>
<path d="M246.792 200.08C246.557 199.099 246.131 198.363 245.512 197.872C244.893 197.381 244.029 197.136 242.92 197.136C241.235 197.136 239.976 197.787 239.144 199.088C238.312 200.368 237.875 202.501 237.832 205.488C238.387 204.549 239.197 203.824 240.264 203.312C241.331 202.8 242.483 202.544 243.72 202.544C245.128 202.544 246.365 202.853 247.432 203.472C248.52 204.069 249.363 204.944 249.96 206.096C250.579 207.248 250.888 208.624 250.888 210.224C250.888 211.717 250.589 213.051 249.992 214.224C249.416 215.397 248.552 216.325 247.4 217.008C246.248 217.669 244.861 218 243.24 218C241.043 218 239.315 217.52 238.056 216.56C236.819 215.579 235.944 214.203 235.432 212.432C234.941 210.661 234.696 208.453 234.696 205.808C234.696 198 237.448 194.096 242.952 194.096C245.085 194.096 246.76 194.672 247.976 195.824C249.213 196.976 249.939 198.395 250.152 200.08H246.792ZM242.92 205.616C241.619 205.616 240.509 206.011 239.592 206.8C238.696 207.568 238.248 208.688 238.248 210.16C238.248 211.632 238.664 212.805 239.496 213.68C240.349 214.533 241.533 214.96 243.048 214.96C244.392 214.96 245.448 214.544 246.216 213.712C247.005 212.88 247.4 211.771 247.4 210.384C247.4 208.933 247.016 207.781 246.248 206.928C245.501 206.053 244.392 205.616 242.92 205.616ZM258.715 205.808C256.497 204.699 255.387 202.949 255.387 200.56C255.387 199.408 255.675 198.352 256.251 197.392C256.827 196.432 257.691 195.675 258.843 195.12C259.995 194.544 261.403 194.256 263.067 194.256C264.71 194.256 266.107 194.544 267.259 195.12C268.433 195.675 269.307 196.432 269.883 197.392C270.459 198.352 270.747 199.408 270.747 200.56C270.747 201.755 270.438 202.811 269.819 203.728C269.222 204.624 268.422 205.317 267.419 205.808C268.635 206.256 269.595 206.992 270.299 208.016C271.003 209.019 271.355 210.203 271.355 211.568C271.355 212.955 271.003 214.181 270.299 215.248C269.595 216.315 268.614 217.136 267.355 217.712C266.097 218.288 264.667 218.576 263.067 218.576C261.467 218.576 260.038 218.288 258.779 217.712C257.542 217.136 256.571 216.315 255.867 215.248C255.163 214.181 254.811 212.955 254.811 211.568C254.811 210.181 255.163 208.987 255.867 207.984C256.571 206.981 257.521 206.256 258.715 205.808ZM267.259 201.008C267.259 199.813 266.886 198.896 266.139 198.256C265.393 197.616 264.369 197.296 263.067 197.296C261.787 197.296 260.774 197.616 260.027 198.256C259.281 198.896 258.907 199.824 258.907 201.04C258.907 202.107 259.291 202.981 260.059 203.664C260.849 204.325 261.851 204.656 263.067 204.656C264.283 204.656 265.286 204.315 266.075 203.632C266.865 202.949 267.259 202.075 267.259 201.008ZM263.067 207.408C261.659 207.408 260.507 207.76 259.611 208.464C258.737 209.147 258.299 210.139 258.299 211.44C258.299 212.656 258.726 213.648 259.579 214.416C260.433 215.163 261.595 215.536 263.067 215.536C264.518 215.536 265.659 215.152 266.491 214.384C267.345 213.616 267.771 212.635 267.771 211.44C267.771 210.16 267.334 209.168 266.459 208.464C265.606 207.76 264.475 207.408 263.067 207.408ZM274.61 200.304C274.61 198.747 275.058 197.531 275.954 196.656C276.871 195.76 278.044 195.312 279.474 195.312C280.903 195.312 282.066 195.76 282.962 196.656C283.879 197.531 284.338 198.747 284.338 200.304C284.338 201.861 283.879 203.088 282.962 203.984C282.066 204.88 280.903 205.328 279.474 205.328C278.044 205.328 276.871 204.88 275.954 203.984C275.058 203.088 274.61 201.861 274.61 200.304ZM294.13 195.728L281.362 218H277.778L290.546 195.728H294.13ZM279.474 197.52C278.13 197.52 277.458 198.448 277.458 200.304C277.458 202.181 278.13 203.12 279.474 203.12C280.114 203.12 280.604 202.896 280.946 202.448C281.308 201.979 281.49 201.264 281.49 200.304C281.49 198.448 280.818 197.52 279.474 197.52ZM287.634 213.392C287.634 211.835 288.082 210.619 288.978 209.744C289.895 208.848 291.068 208.4 292.498 208.4C293.906 208.4 295.058 208.848 295.954 209.744C296.871 210.619 297.33 211.835 297.33 213.392C297.33 214.949 296.871 216.176 295.954 217.072C295.058 217.968 293.906 218.416 292.498 218.416C291.068 218.416 289.895 217.968 288.978 217.072C288.082 216.176 287.634 214.949 287.634 213.392ZM292.466 210.608C291.122 210.608 290.45 211.536 290.45 213.392C290.45 215.248 291.122 216.176 292.466 216.176C293.81 216.176 294.482 215.248 294.482 213.392C294.482 211.536 293.81 210.608 292.466 210.608Z" fill="white"/>
<defs>
<linearGradient id="paint0_linear_212_600" x1="0" y1="0" x2="602.237" y2="428.465" gradientUnits="userSpaceOnUse">
<stop stop-color="#222C54"/>
<stop offset="0.197917" stop-color="#1B2546"/>
<stop offset="0.807292" stop-color="#1B2546"/>
<stop offset="1" stop-color="#222C54"/>
</linearGradient>
</defs>
</svg>
