<svg width="530" height="530" viewBox="0 0 530 530" fill="none" xmlns="http://www.w3.org/2000/svg">
<rect width="530" height="530" rx="4" fill="url(#paint0_linear_212_511)"/>
<rect x="78" y="78" width="374" height="374" rx="12" fill="#11172E"/>
<path opacity="0.2" d="M197 451.712C202.783 424.982 234.094 359.657 310.426 352.325C386.758 344.993 445.254 312.637 452 305" stroke="#BAE7B6" stroke-linecap="round"/>
<path opacity="0.2" d="M217.959 451.712C223.733 424.663 253.9 372.214 330.116 364.794C406.333 357.375 445.264 333.687 452 325.959" stroke="#BAE7B6" stroke-linecap="round"/>
<path d="M200.604 310.42H189.66L187.644 316H184.188L193.26 291.052H197.04L206.076 316H202.62L200.604 310.42ZM199.668 307.756L195.132 295.084L190.596 307.756H199.668ZM208.806 306.1C208.806 304.06 209.214 302.284 210.03 300.772C210.846 299.236 211.974 298.048 213.414 297.208C214.878 296.368 216.546 295.948 218.418 295.948C220.842 295.948 222.834 296.536 224.394 297.712C225.978 298.888 227.022 300.52 227.526 302.608H223.998C223.662 301.408 223.002 300.46 222.018 299.764C221.058 299.068 219.858 298.72 218.418 298.72C216.546 298.72 215.034 299.368 213.882 300.664C212.73 301.936 212.154 303.748 212.154 306.1C212.154 308.476 212.73 310.312 213.882 311.608C215.034 312.904 216.546 313.552 218.418 313.552C219.858 313.552 221.058 313.216 222.018 312.544C222.978 311.872 223.638 310.912 223.998 309.664H227.526C226.998 311.68 225.942 313.3 224.358 314.524C222.774 315.724 220.794 316.324 218.418 316.324C216.546 316.324 214.878 315.904 213.414 315.064C211.974 314.224 210.846 313.036 210.03 311.5C209.214 309.964 208.806 308.164 208.806 306.1ZM235.893 298.972V310.6C235.893 311.56 236.097 312.244 236.505 312.652C236.913 313.036 237.621 313.228 238.629 313.228H241.041V316H238.089C236.265 316 234.897 315.58 233.985 314.74C233.073 313.9 232.617 312.52 232.617 310.6V298.972H230.061V296.272H232.617V291.304H235.893V296.272H241.041V298.972H235.893ZM246.702 293.068C246.078 293.068 245.55 292.852 245.118 292.42C244.686 291.988 244.47 291.46 244.47 290.836C244.47 290.212 244.686 289.684 245.118 289.252C245.55 288.82 246.078 288.604 246.702 288.604C247.302 288.604 247.806 288.82 248.214 289.252C248.646 289.684 248.862 290.212 248.862 290.836C248.862 291.46 248.646 291.988 248.214 292.42C247.806 292.852 247.302 293.068 246.702 293.068ZM248.286 296.272V316H245.01V296.272H248.286ZM261.214 312.976L267.334 296.272H270.826L263.086 316H259.27L251.53 296.272H255.058L261.214 312.976ZM275.741 293.068C275.117 293.068 274.589 292.852 274.157 292.42C273.725 291.988 273.509 291.46 273.509 290.836C273.509 290.212 273.725 289.684 274.157 289.252C274.589 288.82 275.117 288.604 275.741 288.604C276.341 288.604 276.845 288.82 277.253 289.252C277.685 289.684 277.901 290.212 277.901 290.836C277.901 291.46 277.685 291.988 277.253 292.42C276.845 292.852 276.341 293.068 275.741 293.068ZM277.325 296.272V316H274.049V296.272H277.325ZM286.905 298.972V310.6C286.905 311.56 287.109 312.244 287.517 312.652C287.925 313.036 288.633 313.228 289.641 313.228H292.053V316H289.101C287.277 316 285.909 315.58 284.997 314.74C284.085 313.9 283.629 312.52 283.629 310.6V298.972H281.073V296.272H283.629V291.304H286.905V296.272H292.053V298.972H286.905ZM297.714 293.068C297.09 293.068 296.562 292.852 296.13 292.42C295.698 291.988 295.482 291.46 295.482 290.836C295.482 290.212 295.698 289.684 296.13 289.252C296.562 288.82 297.09 288.604 297.714 288.604C298.314 288.604 298.818 288.82 299.226 289.252C299.658 289.684 299.874 290.212 299.874 290.836C299.874 291.46 299.658 291.988 299.226 292.42C298.818 292.852 298.314 293.068 297.714 293.068ZM299.298 296.272V316H296.022V296.272H299.298ZM322.881 305.38C322.881 306.004 322.845 306.664 322.773 307.36H307.005C307.125 309.304 307.785 310.828 308.985 311.932C310.209 313.012 311.685 313.552 313.413 313.552C314.829 313.552 316.005 313.228 316.941 312.58C317.901 311.908 318.573 311.02 318.957 309.916H322.485C321.957 311.812 320.901 313.36 319.317 314.56C317.733 315.736 315.765 316.324 313.413 316.324C311.541 316.324 309.861 315.904 308.373 315.064C306.909 314.224 305.757 313.036 304.917 311.5C304.077 309.94 303.657 308.14 303.657 306.1C303.657 304.06 304.065 302.272 304.881 300.736C305.697 299.2 306.837 298.024 308.301 297.208C309.789 296.368 311.493 295.948 313.413 295.948C315.285 295.948 316.941 296.356 318.381 297.172C319.821 297.988 320.925 299.116 321.693 300.556C322.485 301.972 322.881 303.58 322.881 305.38ZM319.497 304.696C319.497 303.448 319.221 302.38 318.669 301.492C318.117 300.58 317.361 299.896 316.401 299.44C315.465 298.96 314.421 298.72 313.269 298.72C311.613 298.72 310.197 299.248 309.021 300.304C307.869 301.36 307.209 302.824 307.041 304.696H319.497ZM334.19 316.324C332.678 316.324 331.322 316.072 330.122 315.568C328.922 315.04 327.974 314.32 327.278 313.408C326.582 312.472 326.198 311.404 326.126 310.204H329.51C329.606 311.188 330.062 311.992 330.878 312.616C331.718 313.24 332.81 313.552 334.154 313.552C335.402 313.552 336.386 313.276 337.106 312.724C337.826 312.172 338.186 311.476 338.186 310.636C338.186 309.772 337.802 309.136 337.034 308.728C336.266 308.296 335.078 307.876 333.47 307.468C332.006 307.084 330.806 306.7 329.87 306.316C328.958 305.908 328.166 305.32 327.494 304.552C326.846 303.76 326.522 302.728 326.522 301.456C326.522 300.448 326.822 299.524 327.422 298.684C328.022 297.844 328.874 297.184 329.978 296.704C331.082 296.2 332.342 295.948 333.758 295.948C335.942 295.948 337.706 296.5 339.05 297.604C340.394 298.708 341.114 300.22 341.21 302.14H337.934C337.862 301.108 337.442 300.28 336.674 299.656C335.93 299.032 334.922 298.72 333.65 298.72C332.474 298.72 331.538 298.972 330.842 299.476C330.146 299.98 329.798 300.64 329.798 301.456C329.798 302.104 330.002 302.644 330.41 303.076C330.842 303.484 331.37 303.82 331.994 304.084C332.642 304.324 333.53 304.6 334.658 304.912C336.074 305.296 337.226 305.68 338.114 306.064C339.002 306.424 339.758 306.976 340.382 307.72C341.03 308.464 341.366 309.436 341.39 310.636C341.39 311.716 341.09 312.688 340.49 313.552C339.89 314.416 339.038 315.1 337.934 315.604C336.854 316.084 335.606 316.324 334.19 316.324Z" fill="#55A55E"/>
<path d="M189.323 350.979C186.921 349.701 185.721 347.696 185.721 344.962C185.721 343.583 186.078 342.331 186.794 341.207C187.509 340.057 188.595 339.15 190.051 338.486C191.507 337.796 193.295 337.452 195.416 337.452C197.536 337.452 199.312 337.796 200.742 338.486C202.198 339.15 203.284 340.057 203.999 341.207C204.715 342.331 205.072 343.583 205.072 344.962C205.072 346.342 204.74 347.543 204.076 348.564C203.437 349.586 202.569 350.391 201.47 350.979C202.85 351.643 203.91 352.562 204.651 353.738C205.392 354.887 205.762 356.241 205.762 357.8C205.762 359.613 205.302 361.184 204.383 362.513C203.463 363.816 202.211 364.812 200.627 365.502C199.069 366.192 197.332 366.536 195.416 366.536C193.5 366.536 191.75 366.192 190.166 365.502C188.607 364.812 187.368 363.816 186.449 362.513C185.529 361.184 185.069 359.613 185.069 357.8C185.069 356.216 185.44 354.849 186.181 353.699C186.921 352.524 187.969 351.617 189.323 350.979ZM198.711 345.959C198.711 344.911 198.405 344.107 197.792 343.544C197.204 342.957 196.412 342.663 195.416 342.663C194.419 342.663 193.615 342.957 193.002 343.544C192.414 344.132 192.12 344.95 192.12 345.997C192.12 346.993 192.427 347.785 193.04 348.373C193.653 348.935 194.445 349.216 195.416 349.216C196.386 349.216 197.178 348.922 197.792 348.334C198.405 347.747 198.711 346.955 198.711 345.959ZM195.416 353.814C194.215 353.814 193.244 354.146 192.503 354.811C191.763 355.449 191.392 356.343 191.392 357.493C191.392 358.566 191.75 359.447 192.465 360.137C193.206 360.827 194.189 361.172 195.416 361.172C196.642 361.172 197.6 360.827 198.29 360.137C199.005 359.447 199.363 358.566 199.363 357.493C199.363 356.369 198.992 355.475 198.251 354.811C197.536 354.146 196.591 353.814 195.416 353.814ZM209.573 351.63C209.573 347.236 210.416 343.774 212.102 341.245C213.813 338.716 216.56 337.452 220.34 337.452C224.121 337.452 226.855 338.716 228.541 341.245C230.253 343.774 231.108 347.236 231.108 351.63C231.108 356.075 230.253 359.562 228.541 362.091C226.855 364.62 224.121 365.885 220.34 365.885C216.56 365.885 213.813 364.62 212.102 362.091C210.416 359.562 209.573 356.075 209.573 351.63ZM224.671 351.63C224.671 349.05 224.39 347.07 223.828 345.69C223.266 344.285 222.103 343.583 220.34 343.583C218.578 343.583 217.415 344.285 216.853 345.69C216.291 347.07 216.01 349.05 216.01 351.63C216.01 353.367 216.112 354.811 216.317 355.96C216.521 357.084 216.93 358.004 217.543 358.719C218.182 359.409 219.114 359.754 220.34 359.754C221.567 359.754 222.486 359.409 223.099 358.719C223.738 358.004 224.16 357.084 224.364 355.96C224.568 354.811 224.671 353.367 224.671 351.63ZM249.822 329.596L239.552 373.166H233.229L243.499 329.596H249.822ZM251.244 344.119V338.026H261.859V366H255.038V344.119H251.244ZM266.342 351.63C266.342 347.236 267.185 343.774 268.871 341.245C270.582 338.716 273.329 337.452 277.109 337.452C280.89 337.452 283.624 338.716 285.31 341.245C287.022 343.774 287.877 347.236 287.877 351.63C287.877 356.075 287.022 359.562 285.31 362.091C283.624 364.62 280.89 365.885 277.109 365.885C273.329 365.885 270.582 364.62 268.871 362.091C267.185 359.562 266.342 356.075 266.342 351.63ZM281.44 351.63C281.44 349.05 281.159 347.07 280.597 345.69C280.035 344.285 278.872 343.583 277.109 343.583C275.347 343.583 274.184 344.285 273.622 345.69C273.06 347.07 272.779 349.05 272.779 351.63C272.779 353.367 272.881 354.811 273.086 355.96C273.29 357.084 273.699 358.004 274.312 358.719C274.951 359.409 275.883 359.754 277.109 359.754C278.336 359.754 279.255 359.409 279.868 358.719C280.507 358.004 280.929 357.084 281.133 355.96C281.337 354.811 281.44 353.367 281.44 351.63ZM291.339 351.63C291.339 347.236 292.182 343.774 293.868 341.245C295.58 338.716 298.326 337.452 302.107 337.452C305.888 337.452 308.622 338.716 310.308 341.245C312.019 343.774 312.875 347.236 312.875 351.63C312.875 356.075 312.019 359.562 310.308 362.091C308.622 364.62 305.888 365.885 302.107 365.885C298.326 365.885 295.58 364.62 293.868 362.091C292.182 359.562 291.339 356.075 291.339 351.63ZM306.437 351.63C306.437 349.05 306.156 347.07 305.594 345.69C305.032 344.285 303.87 343.583 302.107 343.583C300.345 343.583 299.182 344.285 298.62 345.69C298.058 347.07 297.777 349.05 297.777 351.63C297.777 353.367 297.879 354.811 298.084 355.96C298.288 357.084 298.697 358.004 299.31 358.719C299.949 359.409 300.881 359.754 302.107 359.754C303.333 359.754 304.253 359.409 304.866 358.719C305.505 358.004 305.926 357.084 306.131 355.96C306.335 354.811 306.437 353.367 306.437 351.63ZM315.801 345.077C315.801 343.008 316.388 341.411 317.563 340.287C318.764 339.163 320.31 338.601 322.2 338.601C324.091 338.601 325.623 339.163 326.798 340.287C327.974 341.411 328.561 343.008 328.561 345.077C328.561 347.147 327.974 348.743 326.798 349.867C325.623 350.991 324.091 351.553 322.2 351.553C320.31 351.553 318.764 350.991 317.563 349.867C316.388 348.743 315.801 347.147 315.801 345.077ZM341.82 339.023L327.067 366H320.744L335.497 339.023H341.82ZM322.162 342.433C320.936 342.433 320.322 343.315 320.322 345.077C320.322 346.814 320.936 347.683 322.162 347.683C322.749 347.683 323.209 347.466 323.541 347.032C323.873 346.597 324.039 345.946 324.039 345.077C324.039 343.315 323.414 342.433 322.162 342.433ZM334.041 359.945C334.041 357.876 334.629 356.279 335.804 355.155C336.979 354.031 338.512 353.469 340.402 353.469C342.293 353.469 343.825 354.031 345 355.155C346.176 356.279 346.763 357.876 346.763 359.945C346.763 362.015 346.176 363.611 345 364.735C343.825 365.859 342.293 366.422 340.402 366.422C338.512 366.422 336.979 365.859 335.804 364.735C334.629 363.611 334.041 362.015 334.041 359.945ZM340.364 357.301C339.776 357.301 339.316 357.519 338.984 357.953C338.678 358.387 338.524 359.051 338.524 359.945C338.524 361.683 339.138 362.551 340.364 362.551C340.951 362.551 341.411 362.334 341.743 361.9C342.075 361.465 342.241 360.814 342.241 359.945C342.241 359.077 342.075 358.425 341.743 357.991C341.411 357.531 340.951 357.301 340.364 357.301Z" fill="#55A55E"/>
<path d="M323 206.5C323 238.256 297.256 264 265.5 264C233.744 264 208 238.256 208 206.5C208 174.744 233.744 149 265.5 149C297.256 149 323 174.744 323 206.5ZM219.5 206.5C219.5 231.905 240.095 252.5 265.5 252.5C290.905 252.5 311.5 231.905 311.5 206.5C311.5 181.095 290.905 160.5 265.5 160.5C240.095 160.5 219.5 181.095 219.5 206.5Z" fill="#11172E"/>
<path d="M289.308 160.552C290.769 157.732 289.675 154.232 286.724 153.06C276.793 149.116 265.919 148.003 255.327 149.907C242.842 152.151 231.449 158.462 222.923 167.855C214.397 177.248 209.217 189.197 208.189 201.841C207.161 214.485 210.343 227.114 217.24 237.761C224.137 248.408 234.361 256.475 246.32 260.707C258.279 264.938 271.301 265.096 283.359 261.156C295.417 257.216 305.834 249.399 312.987 238.922C319.055 230.035 322.486 219.657 322.947 208.981C323.084 205.808 320.337 203.379 317.166 203.56C313.996 203.74 311.61 206.464 311.393 209.633C310.838 217.768 308.126 225.647 303.49 232.438C297.767 240.819 289.434 247.073 279.787 250.225C270.141 253.377 259.723 253.251 250.156 249.865C240.589 246.48 232.409 240.026 226.892 231.508C221.375 222.991 218.829 212.888 219.651 202.773C220.474 192.658 224.618 183.098 231.438 175.584C238.259 168.069 247.373 163.021 257.362 161.226C265.455 159.771 273.754 160.518 281.405 163.337C284.385 164.435 287.847 163.371 289.308 160.552Z" fill="#55A55E"/>
<path d="M238.2 205.808C235.981 204.699 234.872 202.949 234.872 200.56C234.872 199.408 235.16 198.352 235.736 197.392C236.312 196.432 237.176 195.675 238.328 195.12C239.48 194.544 240.888 194.256 242.552 194.256C244.194 194.256 245.592 194.544 246.744 195.12C247.917 195.675 248.792 196.432 249.368 197.392C249.944 198.352 250.232 199.408 250.232 200.56C250.232 201.755 249.922 202.811 249.304 203.728C248.706 204.624 247.906 205.317 246.904 205.808C248.12 206.256 249.08 206.992 249.784 208.016C250.488 209.019 250.84 210.203 250.84 211.568C250.84 212.955 250.488 214.181 249.784 215.248C249.08 216.315 248.098 217.136 246.84 217.712C245.581 218.288 244.152 218.576 242.552 218.576C240.952 218.576 239.522 218.288 238.264 217.712C237.026 217.136 236.056 216.315 235.352 215.248C234.648 214.181 234.296 212.955 234.296 211.568C234.296 210.181 234.648 208.987 235.352 207.984C236.056 206.981 237.005 206.256 238.2 205.808ZM246.744 201.008C246.744 199.813 246.37 198.896 245.624 198.256C244.877 197.616 243.853 197.296 242.552 197.296C241.272 197.296 240.258 197.616 239.512 198.256C238.765 198.896 238.392 199.824 238.392 201.04C238.392 202.107 238.776 202.981 239.544 203.664C240.333 204.325 241.336 204.656 242.552 204.656C243.768 204.656 244.77 204.315 245.56 203.632C246.349 202.949 246.744 202.075 246.744 201.008ZM242.552 207.408C241.144 207.408 239.992 207.76 239.096 208.464C238.221 209.147 237.784 210.139 237.784 211.44C237.784 212.656 238.21 213.648 239.064 214.416C239.917 215.163 241.08 215.536 242.552 215.536C244.002 215.536 245.144 215.152 245.976 214.384C246.829 213.616 247.256 212.635 247.256 211.44C247.256 210.16 246.818 209.168 245.944 208.464C245.09 207.76 243.96 207.408 242.552 207.408ZM254.67 206.032C254.67 202.341 255.289 199.461 256.526 197.392C257.785 195.301 259.939 194.256 262.99 194.256C266.041 194.256 268.185 195.301 269.422 197.392C270.681 199.461 271.31 202.341 271.31 206.032C271.31 209.765 270.681 212.688 269.422 214.8C268.185 216.891 266.041 217.936 262.99 217.936C259.939 217.936 257.785 216.891 256.526 214.8C255.289 212.688 254.67 209.765 254.67 206.032ZM267.726 206.032C267.726 204.304 267.609 202.843 267.374 201.648C267.161 200.453 266.713 199.483 266.03 198.736C265.347 197.968 264.334 197.584 262.99 197.584C261.646 197.584 260.633 197.968 259.95 198.736C259.267 199.483 258.809 200.453 258.574 201.648C258.361 202.843 258.254 204.304 258.254 206.032C258.254 207.824 258.361 209.328 258.574 210.544C258.787 211.76 259.235 212.741 259.918 213.488C260.622 214.235 261.646 214.608 262.99 214.608C264.334 214.608 265.347 214.235 266.03 213.488C266.734 212.741 267.193 211.76 267.406 210.544C267.619 209.328 267.726 207.824 267.726 206.032ZM274.594 200.304C274.594 198.747 275.042 197.531 275.938 196.656C276.855 195.76 278.029 195.312 279.458 195.312C280.887 195.312 282.05 195.76 282.946 196.656C283.863 197.531 284.322 198.747 284.322 200.304C284.322 201.861 283.863 203.088 282.946 203.984C282.05 204.88 280.887 205.328 279.458 205.328C278.029 205.328 276.855 204.88 275.938 203.984C275.042 203.088 274.594 201.861 274.594 200.304ZM294.114 195.728L281.346 218H277.762L290.53 195.728H294.114ZM279.458 197.52C278.114 197.52 277.442 198.448 277.442 200.304C277.442 202.181 278.114 203.12 279.458 203.12C280.098 203.12 280.589 202.896 280.93 202.448C281.293 201.979 281.474 201.264 281.474 200.304C281.474 198.448 280.802 197.52 279.458 197.52ZM287.618 213.392C287.618 211.835 288.066 210.619 288.962 209.744C289.879 208.848 291.053 208.4 292.482 208.4C293.89 208.4 295.042 208.848 295.938 209.744C296.855 210.619 297.314 211.835 297.314 213.392C297.314 214.949 296.855 216.176 295.938 217.072C295.042 217.968 293.89 218.416 292.482 218.416C291.053 218.416 289.879 217.968 288.962 217.072C288.066 216.176 287.618 214.949 287.618 213.392ZM292.45 210.608C291.106 210.608 290.434 211.536 290.434 213.392C290.434 215.248 291.106 216.176 292.45 216.176C293.794 216.176 294.466 215.248 294.466 213.392C294.466 211.536 293.794 210.608 292.45 210.608Z" fill="white"/>
<defs>
<linearGradient id="paint0_linear_212_511" x1="0" y1="0" x2="602.237" y2="428.465" gradientUnits="userSpaceOnUse">
<stop stop-color="#222C54"/>
<stop offset="0.197917" stop-color="#1B2546"/>
<stop offset="0.807292" stop-color="#1B2546"/>
<stop offset="1" stop-color="#222C54"/>
</linearGradient>
</defs>
</svg>
