<svg width="530" height="530" viewBox="0 0 530 530" fill="none" xmlns="http://www.w3.org/2000/svg">
<rect width="530" height="530" rx="4" fill="url(#paint0_linear_212_570)"/>
<rect x="78" y="78" width="374" height="374" rx="12" fill="#11172E"/>
<path opacity="0.2" d="M197 451.877C202.783 425.146 234.094 359.821 310.426 352.489C386.758 345.157 445.254 312.802 452 305.164" stroke="#BAE7B6" stroke-linecap="round"/>
<path opacity="0.2" d="M217.959 451.877C223.733 424.828 253.9 372.378 330.116 364.959C406.333 357.54 445.264 333.852 452 326.123" stroke="#BAE7B6" stroke-linecap="round"/>
<path d="M193.825 303.436C193.825 300.988 194.377 298.792 195.481 296.848C196.585 294.88 198.085 293.344 199.981 292.24C201.901 291.136 204.025 290.584 206.353 290.584C209.089 290.584 211.477 291.244 213.517 292.564C215.557 293.884 217.045 295.756 217.981 298.18H214.057C213.361 296.668 212.353 295.504 211.033 294.688C209.737 293.872 208.177 293.464 206.353 293.464C204.601 293.464 203.029 293.872 201.637 294.688C200.245 295.504 199.153 296.668 198.361 298.18C197.569 299.668 197.173 301.42 197.173 303.436C197.173 305.428 197.569 307.18 198.361 308.692C199.153 310.18 200.245 311.332 201.637 312.148C203.029 312.964 204.601 313.372 206.353 313.372C208.177 313.372 209.737 312.976 211.033 312.184C212.353 311.368 213.361 310.204 214.057 308.692H217.981C217.045 311.092 215.557 312.952 213.517 314.272C211.477 315.568 209.089 316.216 206.353 316.216C204.025 316.216 201.901 315.676 199.981 314.596C198.085 313.492 196.585 311.968 195.481 310.024C194.377 308.08 193.825 305.884 193.825 303.436ZM221.634 306.064C221.634 304.048 222.042 302.284 222.858 300.772C223.674 299.236 224.79 298.048 226.206 297.208C227.646 296.368 229.242 295.948 230.994 295.948C232.722 295.948 234.222 296.32 235.494 297.064C236.766 297.808 237.714 298.744 238.338 299.872V296.272H241.65V316H238.338V312.328C237.69 313.48 236.718 314.44 235.422 315.208C234.15 315.952 232.662 316.324 230.958 316.324C229.206 316.324 227.622 315.892 226.206 315.028C224.79 314.164 223.674 312.952 222.858 311.392C222.042 309.832 221.634 308.056 221.634 306.064ZM238.338 306.1C238.338 304.612 238.038 303.316 237.438 302.212C236.838 301.108 236.022 300.268 234.99 299.692C233.982 299.092 232.866 298.792 231.642 298.792C230.418 298.792 229.302 299.08 228.294 299.656C227.286 300.232 226.482 301.072 225.882 302.176C225.282 303.28 224.982 304.576 224.982 306.064C224.982 307.576 225.282 308.896 225.882 310.024C226.482 311.128 227.286 311.98 228.294 312.58C229.302 313.156 230.418 313.444 231.642 313.444C232.866 313.444 233.982 313.156 234.99 312.58C236.022 311.98 236.838 311.128 237.438 310.024C238.038 308.896 238.338 307.588 238.338 306.1ZM250.462 289.36V316H247.186V289.36H250.462ZM264.649 316.324C262.801 316.324 261.121 315.904 259.609 315.064C258.121 314.224 256.945 313.036 256.081 311.5C255.241 309.94 254.821 308.14 254.821 306.1C254.821 304.084 255.253 302.308 256.117 300.772C257.005 299.212 258.205 298.024 259.717 297.208C261.229 296.368 262.921 295.948 264.793 295.948C266.665 295.948 268.357 296.368 269.869 297.208C271.381 298.024 272.569 299.2 273.433 300.736C274.321 302.272 274.765 304.06 274.765 306.1C274.765 308.14 274.309 309.94 273.397 311.5C272.509 313.036 271.297 314.224 269.761 315.064C268.225 315.904 266.521 316.324 264.649 316.324ZM264.649 313.444C265.825 313.444 266.929 313.168 267.961 312.616C268.993 312.064 269.821 311.236 270.445 310.132C271.093 309.028 271.417 307.684 271.417 306.1C271.417 304.516 271.105 303.172 270.481 302.068C269.857 300.964 269.041 300.148 268.033 299.62C267.025 299.068 265.933 298.792 264.757 298.792C263.557 298.792 262.453 299.068 261.445 299.62C260.461 300.148 259.669 300.964 259.069 302.068C258.469 303.172 258.169 304.516 258.169 306.1C258.169 307.708 258.457 309.064 259.033 310.168C259.633 311.272 260.425 312.1 261.409 312.652C262.393 313.18 263.473 313.444 264.649 313.444ZM282.349 299.476C282.925 298.348 283.741 297.472 284.797 296.848C285.877 296.224 287.185 295.912 288.721 295.912V299.296H287.857C284.185 299.296 282.349 301.288 282.349 305.272V316H279.073V296.272H282.349V299.476ZM294.194 293.068C293.57 293.068 293.042 292.852 292.61 292.42C292.178 291.988 291.962 291.46 291.962 290.836C291.962 290.212 292.178 289.684 292.61 289.252C293.042 288.82 293.57 288.604 294.194 288.604C294.794 288.604 295.298 288.82 295.706 289.252C296.138 289.684 296.354 290.212 296.354 290.836C296.354 291.46 296.138 291.988 295.706 292.42C295.298 292.852 294.794 293.068 294.194 293.068ZM295.778 296.272V316H292.502V296.272H295.778ZM319.362 305.38C319.362 306.004 319.326 306.664 319.254 307.36H303.486C303.606 309.304 304.266 310.828 305.466 311.932C306.69 313.012 308.166 313.552 309.894 313.552C311.31 313.552 312.486 313.228 313.422 312.58C314.382 311.908 315.054 311.02 315.438 309.916H318.966C318.438 311.812 317.382 313.36 315.798 314.56C314.214 315.736 312.246 316.324 309.894 316.324C308.022 316.324 306.342 315.904 304.854 315.064C303.39 314.224 302.238 313.036 301.398 311.5C300.558 309.94 300.138 308.14 300.138 306.1C300.138 304.06 300.546 302.272 301.362 300.736C302.178 299.2 303.318 298.024 304.782 297.208C306.27 296.368 307.974 295.948 309.894 295.948C311.766 295.948 313.422 296.356 314.862 297.172C316.302 297.988 317.406 299.116 318.174 300.556C318.966 301.972 319.362 303.58 319.362 305.38ZM315.978 304.696C315.978 303.448 315.702 302.38 315.15 301.492C314.598 300.58 313.842 299.896 312.882 299.44C311.946 298.96 310.902 298.72 309.75 298.72C308.094 298.72 306.678 299.248 305.502 300.304C304.35 301.36 303.69 302.824 303.522 304.696H315.978ZM330.67 316.324C329.158 316.324 327.802 316.072 326.602 315.568C325.402 315.04 324.454 314.32 323.758 313.408C323.062 312.472 322.678 311.404 322.606 310.204H325.99C326.086 311.188 326.542 311.992 327.358 312.616C328.198 313.24 329.29 313.552 330.634 313.552C331.882 313.552 332.866 313.276 333.586 312.724C334.306 312.172 334.666 311.476 334.666 310.636C334.666 309.772 334.282 309.136 333.514 308.728C332.746 308.296 331.558 307.876 329.95 307.468C328.486 307.084 327.286 306.7 326.35 306.316C325.438 305.908 324.646 305.32 323.974 304.552C323.326 303.76 323.002 302.728 323.002 301.456C323.002 300.448 323.302 299.524 323.902 298.684C324.502 297.844 325.354 297.184 326.458 296.704C327.562 296.2 328.822 295.948 330.238 295.948C332.422 295.948 334.186 296.5 335.53 297.604C336.874 298.708 337.594 300.22 337.69 302.14H334.414C334.342 301.108 333.922 300.28 333.154 299.656C332.41 299.032 331.402 298.72 330.13 298.72C328.954 298.72 328.018 298.972 327.322 299.476C326.626 299.98 326.278 300.64 326.278 301.456C326.278 302.104 326.482 302.644 326.89 303.076C327.322 303.484 327.85 303.82 328.474 304.084C329.122 304.324 330.01 304.6 331.138 304.912C332.554 305.296 333.706 305.68 334.594 306.064C335.482 306.424 336.238 306.976 336.862 307.72C337.51 308.464 337.846 309.436 337.87 310.636C337.87 311.716 337.57 312.688 336.97 313.552C336.37 314.416 335.518 315.1 334.414 315.604C333.334 316.084 332.086 316.324 330.67 316.324Z" fill="#8373D7"/>
<path d="M160.847 360.75C161.716 360.06 162.112 359.741 162.035 359.792C164.539 357.723 166.506 356.024 167.937 354.696C169.393 353.367 170.619 351.975 171.615 350.519C172.612 349.063 173.11 347.645 173.11 346.265C173.11 345.218 172.867 344.4 172.382 343.813C171.896 343.225 171.168 342.931 170.197 342.931C169.227 342.931 168.46 343.302 167.898 344.043C167.362 344.758 167.093 345.78 167.093 347.108H160.771C160.822 344.937 161.282 343.123 162.15 341.667C163.044 340.211 164.207 339.138 165.637 338.448C167.093 337.758 168.703 337.413 170.466 337.413C173.506 337.413 175.792 338.192 177.325 339.751C178.883 341.309 179.662 343.34 179.662 345.844C179.662 348.577 178.73 351.119 176.865 353.469C175 355.794 172.624 358.068 169.738 360.29H180.084V365.617H160.847V360.75ZM202.666 343.736H190.71V349.024C191.221 348.462 191.936 348.002 192.856 347.645C193.775 347.287 194.772 347.108 195.845 347.108C197.761 347.108 199.344 347.543 200.596 348.411C201.874 349.28 202.806 350.404 203.394 351.783C203.981 353.163 204.275 354.657 204.275 356.267C204.275 359.256 203.432 361.632 201.746 363.394C200.06 365.131 197.684 366 194.618 366C192.575 366 190.799 365.655 189.292 364.965C187.785 364.25 186.622 363.267 185.805 362.015C184.987 360.763 184.54 359.32 184.464 357.685H190.863C191.016 358.477 191.387 359.141 191.974 359.677C192.562 360.188 193.367 360.444 194.388 360.444C195.589 360.444 196.483 360.06 197.071 359.294C197.658 358.528 197.952 357.506 197.952 356.228C197.952 354.977 197.646 354.019 197.032 353.354C196.419 352.69 195.525 352.358 194.35 352.358C193.482 352.358 192.766 352.575 192.204 353.01C191.642 353.418 191.272 353.968 191.093 354.657H184.77V337.988H202.666V343.736ZM227.588 343.736H215.633V349.024C216.144 348.462 216.859 348.002 217.779 347.645C218.698 347.287 219.695 347.108 220.768 347.108C222.684 347.108 224.267 347.543 225.519 348.411C226.797 349.28 227.729 350.404 228.317 351.783C228.904 353.163 229.198 354.657 229.198 356.267C229.198 359.256 228.355 361.632 226.669 363.394C224.983 365.131 222.607 366 219.541 366C217.498 366 215.722 365.655 214.215 364.965C212.708 364.25 211.545 363.267 210.728 362.015C209.91 360.763 209.463 359.32 209.386 357.685H215.786C215.939 358.477 216.31 359.141 216.897 359.677C217.485 360.188 218.29 360.444 219.311 360.444C220.512 360.444 221.406 360.06 221.994 359.294C222.581 358.528 222.875 357.506 222.875 356.228C222.875 354.977 222.569 354.019 221.955 353.354C221.342 352.69 220.448 352.358 219.273 352.358C218.404 352.358 217.689 352.575 217.127 353.01C216.565 353.418 216.195 353.968 216.016 354.657H209.693V337.988H227.588V343.736ZM232.815 351.63C232.815 347.236 233.658 343.774 235.344 341.245C237.056 338.716 239.802 337.452 243.583 337.452C247.364 337.452 250.097 338.716 251.783 341.245C253.495 343.774 254.351 347.236 254.351 351.63C254.351 356.075 253.495 359.562 251.783 362.091C250.097 364.62 247.364 365.885 243.583 365.885C239.802 365.885 237.056 364.62 235.344 362.091C233.658 359.562 232.815 356.075 232.815 351.63ZM247.913 351.63C247.913 349.05 247.632 347.07 247.07 345.69C246.508 344.285 245.346 343.583 243.583 343.583C241.82 343.583 240.658 344.285 240.096 345.69C239.534 347.07 239.253 349.05 239.253 351.63C239.253 353.367 239.355 354.811 239.559 355.96C239.764 357.084 240.172 358.004 240.786 358.719C241.424 359.409 242.357 359.754 243.583 359.754C244.809 359.754 245.729 359.409 246.342 358.719C246.981 358.004 247.402 357.084 247.607 355.96C247.811 354.811 247.913 353.367 247.913 351.63ZM273.064 329.596L262.794 373.166H256.472L266.741 329.596H273.064ZM275.406 345.92C275.509 343.187 276.403 341.079 278.089 339.598C279.775 338.116 282.061 337.375 284.948 337.375C286.864 337.375 288.499 337.707 289.853 338.371C291.233 339.035 292.267 339.942 292.957 341.092C293.672 342.242 294.03 343.532 294.03 344.962C294.03 346.648 293.608 348.028 292.765 349.101C291.922 350.148 290.939 350.864 289.815 351.247V351.4C291.271 351.885 292.421 352.69 293.264 353.814C294.107 354.938 294.528 356.382 294.528 358.144C294.528 359.728 294.158 361.133 293.417 362.36C292.702 363.56 291.641 364.506 290.236 365.195C288.857 365.885 287.209 366.23 285.293 366.23C282.227 366.23 279.775 365.476 277.936 363.969C276.122 362.462 275.164 360.188 275.062 357.148H281.423C281.448 358.272 281.768 359.166 282.381 359.83C282.994 360.469 283.888 360.788 285.063 360.788C286.059 360.788 286.826 360.507 287.362 359.945C287.924 359.358 288.205 358.591 288.205 357.646C288.205 356.42 287.809 355.539 287.017 355.002C286.251 354.44 285.012 354.159 283.3 354.159H282.074V348.833H283.3C284.603 348.833 285.651 348.615 286.443 348.181C287.26 347.721 287.669 346.917 287.669 345.767C287.669 344.847 287.413 344.132 286.902 343.621C286.392 343.11 285.689 342.855 284.795 342.855C283.824 342.855 283.096 343.149 282.611 343.736C282.151 344.324 281.883 345.052 281.806 345.92H275.406ZM298.378 351.63C298.378 347.236 299.221 343.774 300.907 341.245C302.619 338.716 305.365 337.452 309.146 337.452C312.927 337.452 315.66 338.716 317.347 341.245C319.058 343.774 319.914 347.236 319.914 351.63C319.914 356.075 319.058 359.562 317.347 362.091C315.66 364.62 312.927 365.885 309.146 365.885C305.365 365.885 302.619 364.62 300.907 362.091C299.221 359.562 298.378 356.075 298.378 351.63ZM313.476 351.63C313.476 349.05 313.195 347.07 312.633 345.69C312.071 344.285 310.909 343.583 309.146 343.583C307.383 343.583 306.221 344.285 305.659 345.69C305.097 347.07 304.816 349.05 304.816 351.63C304.816 353.367 304.918 354.811 305.122 355.96C305.327 357.084 305.736 358.004 306.349 358.719C306.987 359.409 307.92 359.754 309.146 359.754C310.372 359.754 311.292 359.409 311.905 358.719C312.544 358.004 312.965 357.084 313.17 355.96C313.374 354.811 313.476 353.367 313.476 351.63ZM323.376 351.63C323.376 347.236 324.219 343.774 325.905 341.245C327.617 338.716 330.363 337.452 334.144 337.452C337.925 337.452 340.658 338.716 342.344 341.245C344.056 343.774 344.912 347.236 344.912 351.63C344.912 356.075 344.056 359.562 342.344 362.091C340.658 364.62 337.925 365.885 334.144 365.885C330.363 365.885 327.617 364.62 325.905 362.091C324.219 359.562 323.376 356.075 323.376 351.63ZM338.474 351.63C338.474 349.05 338.193 347.07 337.631 345.69C337.069 344.285 335.907 343.583 334.144 343.583C332.381 343.583 331.219 344.285 330.657 345.69C330.095 347.07 329.814 349.05 329.814 351.63C329.814 353.367 329.916 354.811 330.12 355.96C330.325 357.084 330.733 358.004 331.346 358.719C331.985 359.409 332.918 359.754 334.144 359.754C335.37 359.754 336.29 359.409 336.903 358.719C337.542 358.004 337.963 357.084 338.167 355.96C338.372 354.811 338.474 353.367 338.474 351.63ZM348.374 351.63C348.374 347.236 349.217 343.774 350.903 341.245C352.614 338.716 355.361 337.452 359.142 337.452C362.923 337.452 365.656 338.716 367.342 341.245C369.054 343.774 369.91 347.236 369.91 351.63C369.91 356.075 369.054 359.562 367.342 362.091C365.656 364.62 362.923 365.885 359.142 365.885C355.361 365.885 352.614 364.62 350.903 362.091C349.217 359.562 348.374 356.075 348.374 351.63ZM363.472 351.63C363.472 349.05 363.191 347.07 362.629 345.69C362.067 344.285 360.904 343.583 359.142 343.583C357.379 343.583 356.217 344.285 355.655 345.69C355.092 347.07 354.811 349.05 354.811 351.63C354.811 353.367 354.914 354.811 355.118 355.96C355.322 357.084 355.731 358.004 356.344 358.719C356.983 359.409 357.915 359.754 359.142 359.754C360.368 359.754 361.288 359.409 361.901 358.719C362.539 358.004 362.961 357.084 363.165 355.96C363.37 354.811 363.472 353.367 363.472 351.63Z" fill="#8373D7"/>
<path d="M323 206.5C323 238.256 297.256 264 265.5 264C233.744 264 208 238.256 208 206.5C208 174.744 233.744 149 265.5 149C297.256 149 323 174.744 323 206.5ZM219.5 206.5C219.5 231.905 240.095 252.5 265.5 252.5C290.905 252.5 311.5 231.905 311.5 206.5C311.5 181.095 290.905 160.5 265.5 160.5C240.095 160.5 219.5 181.095 219.5 206.5Z" fill="#171F3D"/>
<path d="M289.308 160.552C290.769 157.732 289.675 154.232 286.724 153.06C276.51 149.004 265.305 147.944 254.441 150.074C241.689 152.573 230.16 159.318 221.732 169.209C213.305 179.1 208.476 191.554 208.033 204.541C207.591 217.528 211.56 230.282 219.295 240.724C227.029 251.167 238.072 258.681 250.625 262.043C263.177 265.404 276.498 264.415 288.416 259.236C300.334 254.058 310.146 244.995 316.253 233.525C321.456 223.753 323.709 212.726 322.805 201.773C322.544 198.608 319.515 196.542 316.392 197.118C313.269 197.693 311.243 200.695 311.425 203.865C311.906 212.249 310.084 220.644 306.103 228.12C301.217 237.296 293.367 244.546 283.832 248.689C274.298 252.832 263.641 253.623 253.6 250.934C243.558 248.245 234.723 242.233 228.536 233.88C222.348 225.526 219.173 215.323 219.527 204.933C219.881 194.543 223.744 184.58 230.486 176.667C237.228 168.754 246.451 163.358 256.653 161.359C264.964 159.73 273.526 160.434 281.405 163.337C284.385 164.435 287.847 163.371 289.308 160.552Z" fill="#8373D7"/>
<path d="M238.231 205.808C236.012 204.699 234.903 202.949 234.903 200.56C234.903 199.408 235.191 198.352 235.767 197.392C236.343 196.432 237.207 195.675 238.359 195.12C239.511 194.544 240.919 194.256 242.583 194.256C244.226 194.256 245.623 194.544 246.775 195.12C247.948 195.675 248.823 196.432 249.399 197.392C249.975 198.352 250.263 199.408 250.263 200.56C250.263 201.755 249.954 202.811 249.335 203.728C248.738 204.624 247.938 205.317 246.935 205.808C248.151 206.256 249.111 206.992 249.815 208.016C250.519 209.019 250.871 210.203 250.871 211.568C250.871 212.955 250.519 214.181 249.815 215.248C249.111 216.315 248.13 217.136 246.871 217.712C245.612 218.288 244.183 218.576 242.583 218.576C240.983 218.576 239.554 218.288 238.295 217.712C237.058 217.136 236.087 216.315 235.383 215.248C234.679 214.181 234.327 212.955 234.327 211.568C234.327 210.181 234.679 208.987 235.383 207.984C236.087 206.981 237.036 206.256 238.231 205.808ZM246.775 201.008C246.775 199.813 246.402 198.896 245.655 198.256C244.908 197.616 243.884 197.296 242.583 197.296C241.303 197.296 240.29 197.616 239.543 198.256C238.796 198.896 238.423 199.824 238.423 201.04C238.423 202.107 238.807 202.981 239.575 203.664C240.364 204.325 241.367 204.656 242.583 204.656C243.799 204.656 244.802 204.315 245.591 203.632C246.38 202.949 246.775 202.075 246.775 201.008ZM242.583 207.408C241.175 207.408 240.023 207.76 239.127 208.464C238.252 209.147 237.815 210.139 237.815 211.44C237.815 212.656 238.242 213.648 239.095 214.416C239.948 215.163 241.111 215.536 242.583 215.536C244.034 215.536 245.175 215.152 246.007 214.384C246.86 213.616 247.287 212.635 247.287 211.44C247.287 210.16 246.85 209.168 245.975 208.464C245.122 207.76 243.991 207.408 242.583 207.408ZM269.741 197.808H259.021V204.176C259.469 203.579 260.131 203.077 261.005 202.672C261.901 202.267 262.851 202.064 263.853 202.064C265.645 202.064 267.096 202.448 268.205 203.216C269.336 203.984 270.136 204.955 270.605 206.128C271.096 207.301 271.341 208.539 271.341 209.84C271.341 211.419 271.032 212.827 270.413 214.064C269.816 215.28 268.909 216.24 267.693 216.944C266.499 217.648 265.027 218 263.277 218C260.952 218 259.085 217.424 257.677 216.272C256.269 215.12 255.427 213.595 255.149 211.696H258.701C258.936 212.699 259.459 213.499 260.269 214.096C261.08 214.672 262.093 214.96 263.309 214.96C264.824 214.96 265.955 214.501 266.701 213.584C267.469 212.667 267.853 211.451 267.853 209.936C267.853 208.4 267.469 207.227 266.701 206.416C265.933 205.584 264.803 205.168 263.309 205.168C262.264 205.168 261.379 205.435 260.653 205.968C259.949 206.48 259.437 207.184 259.117 208.08H255.661V194.608H269.741V197.808ZM274.563 200.304C274.563 198.747 275.011 197.531 275.907 196.656C276.824 195.76 277.997 195.312 279.427 195.312C280.856 195.312 282.019 195.76 282.915 196.656C283.832 197.531 284.291 198.747 284.291 200.304C284.291 201.861 283.832 203.088 282.915 203.984C282.019 204.88 280.856 205.328 279.427 205.328C277.997 205.328 276.824 204.88 275.907 203.984C275.011 203.088 274.563 201.861 274.563 200.304ZM294.083 195.728L281.315 218H277.731L290.499 195.728H294.083ZM279.427 197.52C278.083 197.52 277.411 198.448 277.411 200.304C277.411 202.181 278.083 203.12 279.427 203.12C280.067 203.12 280.557 202.896 280.899 202.448C281.261 201.979 281.443 201.264 281.443 200.304C281.443 198.448 280.771 197.52 279.427 197.52ZM287.587 213.392C287.587 211.835 288.035 210.619 288.931 209.744C289.848 208.848 291.021 208.4 292.451 208.4C293.859 208.4 295.011 208.848 295.907 209.744C296.824 210.619 297.283 211.835 297.283 213.392C297.283 214.949 296.824 216.176 295.907 217.072C295.011 217.968 293.859 218.416 292.451 218.416C291.021 218.416 289.848 217.968 288.931 217.072C288.035 216.176 287.587 214.949 287.587 213.392ZM292.419 210.608C291.075 210.608 290.403 211.536 290.403 213.392C290.403 215.248 291.075 216.176 292.419 216.176C293.763 216.176 294.435 215.248 294.435 213.392C294.435 211.536 293.763 210.608 292.419 210.608Z" fill="white"/>
<defs>
<linearGradient id="paint0_linear_212_570" x1="0" y1="0" x2="602.237" y2="428.465" gradientUnits="userSpaceOnUse">
<stop stop-color="#222C54"/>
<stop offset="0.197917" stop-color="#1B2546"/>
<stop offset="0.807292" stop-color="#1B2546"/>
<stop offset="1" stop-color="#222C54"/>
</linearGradient>
</defs>
</svg>
