<svg width="42" height="42" viewBox="0 0 42 42" fill="none" xmlns="http://www.w3.org/2000/svg">
<path d="M21 40V11.5M21 11.5H12.45C11.1902 11.5 9.98204 10.9996 9.09124 10.1088C8.20044 9.21796 7.7 8.00978 7.7 6.75C7.7 5.49022 8.20044 4.28204 9.09124 3.39124C9.98204 2.50044 11.1902 2 12.45 2C19.1 2 21 11.5 21 11.5ZM21 11.5H29.55C30.8098 11.5 32.018 10.9996 32.9088 10.1088C33.7996 9.21796 34.3 8.00978 34.3 6.75C34.3 5.49022 33.7996 4.28204 32.9088 3.39124C32.018 2.50044 30.8098 2 29.55 2C22.9 2 21 11.5 21 11.5ZM4 21H38C39.1046 21 40 20.1046 40 19V13.5C40 12.3954 39.1046 11.5 38 11.5H4C2.89543 11.5 2 12.3954 2 13.5V19C2 20.1046 2.89543 21 4 21ZM5.8 23V38C5.8 39.1046 6.69543 40 7.8 40H34.2C35.3046 40 36.2 39.1046 36.2 38V23C36.2 21.8954 35.3046 21 34.2 21H7.8C6.69543 21 5.8 21.8954 5.8 23Z" stroke="white" stroke-width="3" stroke-linecap="round" stroke-linejoin="round"/>
</svg>
