<svg width="38" height="38" viewBox="0 0 38 38" fill="none" xmlns="http://www.w3.org/2000/svg">
<path d="M19 0C8.5234 0 0 8.5234 0 19V26.8717C0 28.8173 1.7043 30.4 3.8 30.4H5.7C6.20391 30.4 6.68718 30.1998 7.0435 29.8435C7.39982 29.4872 7.6 29.0039 7.6 28.5V18.7283C7.6 18.2244 7.39982 17.7411 7.0435 17.3848C6.68718 17.0285 6.20391 16.8283 5.7 16.8283H3.9748C5.0312 9.4753 11.3582 3.8 19 3.8C26.6418 3.8 32.9688 9.4753 34.0252 16.8283H32.3C31.7961 16.8283 31.3128 17.0285 30.9565 17.3848C30.6002 17.7411 30.4 18.2244 30.4 18.7283V30.4C30.4 32.4957 28.6957 34.2 26.6 34.2H22.8V32.3H15.2V38H26.6C30.7914 38 34.2 34.5914 34.2 30.4C36.2957 30.4 38 28.8173 38 26.8717V19C38 8.5234 29.4766 0 19 0Z" fill="white"/>
</svg>
