<svg width="530" height="530" viewBox="0 0 530 530" fill="none" xmlns="http://www.w3.org/2000/svg">
<rect width="530" height="530" rx="4" fill="url(#paint0_linear_214_914)"/>
<rect x="78" y="78" width="374" height="374" rx="12" fill="#11172E"/>
<path opacity="0.2" d="M197 451.877C202.783 425.146 234.094 359.821 310.426 352.489C386.758 345.158 445.254 312.802 452 305.165" stroke="#BAE7B6" stroke-linecap="round"/>
<path opacity="0.2" d="M217.959 451.877C223.733 424.828 253.9 372.378 330.116 364.959C406.333 357.54 445.264 333.852 452 326.124" stroke="#BAE7B6" stroke-linecap="round"/>
<path d="M209.548 298.252C209.548 300.34 208.828 302.08 207.388 303.472C205.972 304.84 203.8 305.524 200.872 305.524H196.048V316H192.772V290.908H200.872C203.704 290.908 205.852 291.592 207.316 292.96C208.804 294.328 209.548 296.092 209.548 298.252ZM200.872 302.824C202.696 302.824 204.04 302.428 204.904 301.636C205.768 300.844 206.2 299.716 206.2 298.252C206.2 295.156 204.424 293.608 200.872 293.608H196.048V302.824H200.872ZM216.896 299.476C217.472 298.348 218.288 297.472 219.344 296.848C220.424 296.224 221.732 295.912 223.268 295.912V299.296H222.404C218.732 299.296 216.896 301.288 216.896 305.272V316H213.62V296.272H216.896V299.476ZM245.049 305.38C245.049 306.004 245.013 306.664 244.941 307.36H229.173C229.293 309.304 229.953 310.828 231.153 311.932C232.377 313.012 233.853 313.552 235.581 313.552C236.997 313.552 238.173 313.228 239.109 312.58C240.069 311.908 240.741 311.02 241.125 309.916H244.653C244.125 311.812 243.069 313.36 241.485 314.56C239.901 315.736 237.933 316.324 235.581 316.324C233.709 316.324 232.029 315.904 230.541 315.064C229.077 314.224 227.925 313.036 227.085 311.5C226.245 309.94 225.825 308.14 225.825 306.1C225.825 304.06 226.233 302.272 227.049 300.736C227.865 299.2 229.005 298.024 230.469 297.208C231.957 296.368 233.661 295.948 235.581 295.948C237.453 295.948 239.109 296.356 240.549 297.172C241.989 297.988 243.093 299.116 243.861 300.556C244.653 301.972 245.049 303.58 245.049 305.38ZM241.665 304.696C241.665 303.448 241.389 302.38 240.837 301.492C240.285 300.58 239.529 299.896 238.569 299.44C237.633 298.96 236.589 298.72 235.437 298.72C233.781 298.72 232.365 299.248 231.189 300.304C230.037 301.36 229.377 302.824 229.209 304.696H241.665ZM256.358 316.324C254.846 316.324 253.49 316.072 252.29 315.568C251.09 315.04 250.142 314.32 249.446 313.408C248.75 312.472 248.366 311.404 248.294 310.204H251.678C251.774 311.188 252.23 311.992 253.046 312.616C253.886 313.24 254.978 313.552 256.322 313.552C257.57 313.552 258.554 313.276 259.274 312.724C259.994 312.172 260.354 311.476 260.354 310.636C260.354 309.772 259.97 309.136 259.202 308.728C258.434 308.296 257.246 307.876 255.638 307.468C254.174 307.084 252.974 306.7 252.038 306.316C251.126 305.908 250.334 305.32 249.662 304.552C249.014 303.76 248.69 302.728 248.69 301.456C248.69 300.448 248.99 299.524 249.59 298.684C250.19 297.844 251.042 297.184 252.146 296.704C253.25 296.2 254.51 295.948 255.926 295.948C258.11 295.948 259.874 296.5 261.218 297.604C262.562 298.708 263.282 300.22 263.378 302.14H260.102C260.03 301.108 259.61 300.28 258.842 299.656C258.098 299.032 257.09 298.72 255.818 298.72C254.642 298.72 253.706 298.972 253.01 299.476C252.314 299.98 251.966 300.64 251.966 301.456C251.966 302.104 252.17 302.644 252.578 303.076C253.01 303.484 253.538 303.82 254.162 304.084C254.81 304.324 255.698 304.6 256.826 304.912C258.242 305.296 259.394 305.68 260.282 306.064C261.17 306.424 261.926 306.976 262.55 307.72C263.198 308.464 263.534 309.436 263.558 310.636C263.558 311.716 263.258 312.688 262.658 313.552C262.058 314.416 261.206 315.1 260.102 315.604C259.022 316.084 257.774 316.324 256.358 316.324ZM275.166 316.324C273.654 316.324 272.298 316.072 271.098 315.568C269.898 315.04 268.95 314.32 268.254 313.408C267.558 312.472 267.174 311.404 267.102 310.204H270.486C270.582 311.188 271.038 311.992 271.854 312.616C272.694 313.24 273.786 313.552 275.13 313.552C276.378 313.552 277.362 313.276 278.082 312.724C278.802 312.172 279.162 311.476 279.162 310.636C279.162 309.772 278.778 309.136 278.01 308.728C277.242 308.296 276.054 307.876 274.446 307.468C272.982 307.084 271.782 306.7 270.846 306.316C269.934 305.908 269.142 305.32 268.47 304.552C267.822 303.76 267.498 302.728 267.498 301.456C267.498 300.448 267.798 299.524 268.398 298.684C268.998 297.844 269.85 297.184 270.954 296.704C272.058 296.2 273.318 295.948 274.734 295.948C276.918 295.948 278.682 296.5 280.026 297.604C281.37 298.708 282.09 300.22 282.186 302.14H278.91C278.838 301.108 278.418 300.28 277.65 299.656C276.906 299.032 275.898 298.72 274.626 298.72C273.45 298.72 272.514 298.972 271.818 299.476C271.122 299.98 270.774 300.64 270.774 301.456C270.774 302.104 270.978 302.644 271.386 303.076C271.818 303.484 272.346 303.82 272.97 304.084C273.618 304.324 274.506 304.6 275.634 304.912C277.05 305.296 278.202 305.68 279.09 306.064C279.978 306.424 280.734 306.976 281.358 307.72C282.006 308.464 282.342 309.436 282.366 310.636C282.366 311.716 282.066 312.688 281.466 313.552C280.866 314.416 280.014 315.1 278.91 315.604C277.83 316.084 276.582 316.324 275.166 316.324ZM304.487 296.272V316H301.211V313.084C300.587 314.092 299.711 314.884 298.583 315.46C297.479 316.012 296.255 316.288 294.911 316.288C293.375 316.288 291.995 315.976 290.771 315.352C289.547 314.704 288.575 313.744 287.855 312.472C287.159 311.2 286.811 309.652 286.811 307.828V296.272H290.051V307.396C290.051 309.34 290.543 310.84 291.527 311.896C292.511 312.928 293.855 313.444 295.559 313.444C297.311 313.444 298.691 312.904 299.699 311.824C300.707 310.744 301.211 309.172 301.211 307.108V296.272H304.487ZM313.294 299.476C313.87 298.348 314.686 297.472 315.742 296.848C316.822 296.224 318.13 295.912 319.666 295.912V299.296H318.802C315.13 299.296 313.294 301.288 313.294 305.272V316H310.018V296.272H313.294V299.476ZM341.448 305.38C341.448 306.004 341.412 306.664 341.34 307.36H325.572C325.692 309.304 326.352 310.828 327.552 311.932C328.776 313.012 330.252 313.552 331.98 313.552C333.396 313.552 334.572 313.228 335.508 312.58C336.468 311.908 337.14 311.02 337.524 309.916H341.052C340.524 311.812 339.468 313.36 337.884 314.56C336.3 315.736 334.332 316.324 331.98 316.324C330.108 316.324 328.428 315.904 326.94 315.064C325.476 314.224 324.324 313.036 323.484 311.5C322.644 309.94 322.224 308.14 322.224 306.1C322.224 304.06 322.632 302.272 323.448 300.736C324.264 299.2 325.404 298.024 326.868 297.208C328.356 296.368 330.06 295.948 331.98 295.948C333.852 295.948 335.508 296.356 336.948 297.172C338.388 297.988 339.492 299.116 340.26 300.556C341.052 301.972 341.448 303.58 341.448 305.38ZM338.064 304.696C338.064 303.448 337.788 302.38 337.236 301.492C336.684 300.58 335.928 299.896 334.968 299.44C334.032 298.96 332.988 298.72 331.836 298.72C330.18 298.72 328.764 299.248 327.588 300.304C326.436 301.36 325.776 302.824 325.608 304.696H338.064Z" fill="#B2C778"/>
<path d="M198.805 345.575C198.6 344.63 198.243 343.928 197.732 343.468C197.221 342.982 196.493 342.74 195.547 342.74C194.091 342.74 193.044 343.378 192.405 344.656C191.767 345.908 191.434 347.9 191.409 350.634C191.971 349.74 192.776 349.037 193.823 348.526C194.896 348.015 196.071 347.76 197.348 347.76C199.852 347.76 201.857 348.552 203.365 350.136C204.898 351.719 205.664 353.929 205.664 356.765C205.664 358.63 205.281 360.265 204.514 361.67C203.773 363.075 202.675 364.173 201.219 364.965C199.788 365.757 198.089 366.153 196.122 366.153C192.188 366.153 189.455 364.927 187.922 362.475C186.389 359.997 185.623 356.446 185.623 351.822C185.623 346.968 186.427 343.366 188.037 341.015C189.672 338.64 192.277 337.452 195.854 337.452C197.77 337.452 199.379 337.835 200.682 338.601C202.011 339.342 203.007 340.326 203.671 341.552C204.361 342.778 204.77 344.119 204.898 345.575H198.805ZM195.777 352.933C194.679 352.933 193.759 353.265 193.018 353.929C192.303 354.568 191.945 355.488 191.945 356.688C191.945 357.914 192.277 358.872 192.942 359.562C193.631 360.252 194.602 360.597 195.854 360.597C196.978 360.597 197.859 360.265 198.498 359.601C199.162 358.911 199.494 357.978 199.494 356.803C199.494 355.603 199.175 354.657 198.536 353.968C197.898 353.278 196.978 352.933 195.777 352.933ZM209.37 351.63C209.37 347.236 210.213 343.774 211.899 341.245C213.611 338.716 216.357 337.452 220.138 337.452C223.919 337.452 226.653 338.716 228.339 341.245C230.05 343.774 230.906 347.236 230.906 351.63C230.906 356.075 230.05 359.562 228.339 362.091C226.653 364.62 223.919 365.885 220.138 365.885C216.357 365.885 213.611 364.62 211.899 362.091C210.213 359.562 209.37 356.075 209.37 351.63ZM224.468 351.63C224.468 349.05 224.187 347.07 223.625 345.69C223.063 344.285 221.901 343.583 220.138 343.583C218.375 343.583 217.213 344.285 216.651 345.69C216.089 347.07 215.808 349.05 215.808 351.63C215.808 353.367 215.91 354.811 216.115 355.96C216.319 357.084 216.728 358.004 217.341 358.719C217.979 359.409 218.912 359.754 220.138 359.754C221.364 359.754 222.284 359.409 222.897 358.719C223.536 358.004 223.957 357.084 224.162 355.96C224.366 354.811 224.468 353.367 224.468 351.63ZM249.619 329.596L239.35 373.166H233.027L243.297 329.596H249.619ZM251.042 344.119V338.026H261.657V366H254.836V344.119H251.042ZM266.139 351.63C266.139 347.236 266.982 343.774 268.668 341.245C270.38 338.716 273.126 337.452 276.907 337.452C280.688 337.452 283.421 338.716 285.108 341.245C286.819 343.774 287.675 347.236 287.675 351.63C287.675 356.075 286.819 359.562 285.108 362.091C283.421 364.62 280.688 365.885 276.907 365.885C273.126 365.885 270.38 364.62 268.668 362.091C266.982 359.562 266.139 356.075 266.139 351.63ZM281.237 351.63C281.237 349.05 280.956 347.07 280.394 345.69C279.832 344.285 278.67 343.583 276.907 343.583C275.144 343.583 273.982 344.285 273.42 345.69C272.858 347.07 272.577 349.05 272.577 351.63C272.577 353.367 272.679 354.811 272.883 355.96C273.088 357.084 273.497 358.004 274.11 358.719C274.748 359.409 275.681 359.754 276.907 359.754C278.133 359.754 279.053 359.409 279.666 358.719C280.305 358.004 280.726 357.084 280.931 355.96C281.135 354.811 281.237 353.367 281.237 351.63ZM291.137 351.63C291.137 347.236 291.98 343.774 293.666 341.245C295.378 338.716 298.124 337.452 301.905 337.452C305.686 337.452 308.419 338.716 310.105 341.245C311.817 343.774 312.673 347.236 312.673 351.63C312.673 356.075 311.817 359.562 310.105 362.091C308.419 364.62 305.686 365.885 301.905 365.885C298.124 365.885 295.378 364.62 293.666 362.091C291.98 359.562 291.137 356.075 291.137 351.63ZM306.235 351.63C306.235 349.05 305.954 347.07 305.392 345.69C304.83 344.285 303.668 343.583 301.905 343.583C300.142 343.583 298.98 344.285 298.418 345.69C297.856 347.07 297.575 349.05 297.575 351.63C297.575 353.367 297.677 354.811 297.881 355.96C298.086 357.084 298.494 358.004 299.108 358.719C299.746 359.409 300.679 359.754 301.905 359.754C303.131 359.754 304.051 359.409 304.664 358.719C305.303 358.004 305.724 357.084 305.929 355.96C306.133 354.811 306.235 353.367 306.235 351.63ZM315.598 345.077C315.598 343.008 316.186 341.411 317.361 340.287C318.562 339.163 320.107 338.601 321.998 338.601C323.888 338.601 325.421 339.163 326.596 340.287C327.771 341.411 328.359 343.008 328.359 345.077C328.359 347.147 327.771 348.743 326.596 349.867C325.421 350.991 323.888 351.553 321.998 351.553C320.107 351.553 318.562 350.991 317.361 349.867C316.186 348.743 315.598 347.147 315.598 345.077ZM341.618 339.023L326.864 366H320.542L335.295 339.023H341.618ZM321.959 342.433C320.733 342.433 320.12 343.315 320.12 345.077C320.12 346.814 320.733 347.683 321.959 347.683C322.547 347.683 323.007 347.466 323.339 347.032C323.671 346.597 323.837 345.946 323.837 345.077C323.837 343.315 323.211 342.433 321.959 342.433ZM333.839 359.945C333.839 357.876 334.426 356.279 335.601 355.155C336.776 354.031 338.309 353.469 340.2 353.469C342.09 353.469 343.623 354.031 344.798 355.155C345.973 356.279 346.561 357.876 346.561 359.945C346.561 362.015 345.973 363.611 344.798 364.735C343.623 365.859 342.09 366.422 340.2 366.422C338.309 366.422 336.776 365.859 335.601 364.735C334.426 363.611 333.839 362.015 333.839 359.945ZM340.161 357.301C339.574 357.301 339.114 357.519 338.782 357.953C338.475 358.387 338.322 359.051 338.322 359.945C338.322 361.683 338.935 362.551 340.161 362.551C340.749 362.551 341.209 362.334 341.541 361.9C341.873 361.465 342.039 360.814 342.039 359.945C342.039 359.077 341.873 358.425 341.541 357.991C341.209 357.531 340.749 357.301 340.161 357.301Z" fill="#B2C778"/>
<path d="M323 206.5C323 238.256 297.256 264 265.5 264C233.744 264 208 238.256 208 206.5C208 174.744 233.744 149 265.5 149C297.256 149 323 174.744 323 206.5ZM219.5 206.5C219.5 231.905 240.095 252.5 265.5 252.5C290.905 252.5 311.5 231.905 311.5 206.5C311.5 181.095 290.905 160.5 265.5 160.5C240.095 160.5 219.5 181.095 219.5 206.5Z" fill="#11172E"/>
<path d="M289.308 160.552C290.769 157.732 289.675 154.233 286.724 153.06C280.036 150.404 272.892 149.021 265.662 149C256.51 148.975 247.484 151.134 239.334 155.298C231.185 159.463 224.147 165.513 218.806 172.945C213.466 180.377 209.976 188.976 208.628 198.028C207.279 207.08 208.111 216.323 211.054 224.989C213.997 233.655 218.966 241.494 225.547 247.853C232.129 254.212 240.134 258.908 248.896 261.55C255.818 263.638 263.055 264.397 270.227 263.805C273.392 263.544 275.458 260.515 274.882 257.392C274.307 254.269 271.305 252.243 268.135 252.424C262.774 252.732 257.386 252.099 252.217 250.54C245.207 248.426 238.803 244.669 233.538 239.582C228.272 234.495 224.297 228.224 221.943 221.292C219.589 214.359 218.923 206.964 220.002 199.723C221.081 192.481 223.872 185.601 228.145 179.656C232.418 173.71 238.048 168.87 244.567 165.539C251.087 162.207 258.308 160.48 265.629 160.5C271.028 160.515 276.367 161.481 281.405 163.337C284.385 164.435 287.847 163.371 289.308 160.552Z" fill="#B2C778"/>
<path d="M246.745 200.08C246.511 199.099 246.084 198.363 245.465 197.872C244.847 197.381 243.983 197.136 242.873 197.136C241.188 197.136 239.929 197.787 239.097 199.088C238.265 200.368 237.828 202.501 237.785 205.488C238.34 204.549 239.151 203.824 240.217 203.312C241.284 202.8 242.436 202.544 243.673 202.544C245.081 202.544 246.319 202.853 247.385 203.472C248.473 204.069 249.316 204.944 249.913 206.096C250.532 207.248 250.841 208.624 250.841 210.224C250.841 211.717 250.543 213.051 249.945 214.224C249.369 215.397 248.505 216.325 247.353 217.008C246.201 217.669 244.815 218 243.193 218C240.996 218 239.268 217.52 238.009 216.56C236.772 215.579 235.897 214.203 235.385 212.432C234.895 210.661 234.649 208.453 234.649 205.808C234.649 198 237.401 194.096 242.905 194.096C245.039 194.096 246.713 194.672 247.929 195.824C249.167 196.976 249.892 198.395 250.105 200.08H246.745ZM242.873 205.616C241.572 205.616 240.463 206.011 239.545 206.8C238.649 207.568 238.201 208.688 238.201 210.16C238.201 211.632 238.617 212.805 239.449 213.68C240.303 214.533 241.487 214.96 243.001 214.96C244.345 214.96 245.401 214.544 246.169 213.712C246.959 212.88 247.353 211.771 247.353 210.384C247.353 208.933 246.969 207.781 246.201 206.928C245.455 206.053 244.345 205.616 242.873 205.616ZM254.733 206.032C254.733 202.341 255.351 199.461 256.589 197.392C257.847 195.301 260.002 194.256 263.053 194.256C266.103 194.256 268.247 195.301 269.485 197.392C270.743 199.461 271.373 202.341 271.373 206.032C271.373 209.765 270.743 212.688 269.485 214.8C268.247 216.891 266.103 217.936 263.053 217.936C260.002 217.936 257.847 216.891 256.589 214.8C255.351 212.688 254.733 209.765 254.733 206.032ZM267.789 206.032C267.789 204.304 267.671 202.843 267.437 201.648C267.223 200.453 266.775 199.483 266.093 198.736C265.41 197.968 264.397 197.584 263.053 197.584C261.709 197.584 260.695 197.968 260.013 198.736C259.33 199.483 258.871 200.453 258.637 201.648C258.423 202.843 258.317 204.304 258.317 206.032C258.317 207.824 258.423 209.328 258.637 210.544C258.85 211.76 259.298 212.741 259.981 213.488C260.685 214.235 261.709 214.608 263.053 214.608C264.397 214.608 265.41 214.235 266.093 213.488C266.797 212.741 267.255 211.76 267.469 210.544C267.682 209.328 267.789 207.824 267.789 206.032ZM274.657 200.304C274.657 198.747 275.105 197.531 276.001 196.656C276.918 195.76 278.091 195.312 279.521 195.312C280.95 195.312 282.113 195.76 283.009 196.656C283.926 197.531 284.385 198.747 284.385 200.304C284.385 201.861 283.926 203.088 283.009 203.984C282.113 204.88 280.95 205.328 279.521 205.328C278.091 205.328 276.918 204.88 276.001 203.984C275.105 203.088 274.657 201.861 274.657 200.304ZM294.177 195.728L281.409 218H277.825L290.593 195.728H294.177ZM279.521 197.52C278.177 197.52 277.505 198.448 277.505 200.304C277.505 202.181 278.177 203.12 279.521 203.12C280.161 203.12 280.651 202.896 280.993 202.448C281.355 201.979 281.536 201.264 281.536 200.304C281.536 198.448 280.865 197.52 279.521 197.52ZM287.681 213.392C287.681 211.835 288.129 210.619 289.025 209.744C289.942 208.848 291.115 208.4 292.545 208.4C293.953 208.4 295.105 208.848 296.001 209.744C296.918 210.619 297.377 211.835 297.377 213.392C297.377 214.949 296.918 216.176 296.001 217.072C295.105 217.968 293.953 218.416 292.545 218.416C291.115 218.416 289.942 217.968 289.025 217.072C288.129 216.176 287.681 214.949 287.681 213.392ZM292.513 210.608C291.169 210.608 290.497 211.536 290.497 213.392C290.497 215.248 291.169 216.176 292.513 216.176C293.857 216.176 294.529 215.248 294.529 213.392C294.529 211.536 293.857 210.608 292.513 210.608Z" fill="white"/>
<defs>
<linearGradient id="paint0_linear_214_914" x1="0" y1="0" x2="602.237" y2="428.465" gradientUnits="userSpaceOnUse">
<stop stop-color="#222C54"/>
<stop offset="0.197917" stop-color="#1B2546"/>
<stop offset="0.807292" stop-color="#1B2546"/>
<stop offset="1" stop-color="#222C54"/>
</linearGradient>
</defs>
</svg>
